<svg xmlns="http://www.w3.org/2000/svg" xmlns:xlink="http://www.w3.org/1999/xlink" width="530" zoomAndPan="magnify" viewBox="0 0 397.5 112.499997" height="150" preserveAspectRatio="xMidYMid meet" version="1.0"><defs><g/><clipPath id="dd55be54de"><path d="M 121 54 L 138 54 L 138 75 L 121 75 Z M 121 54 " clip-rule="nonzero"/></clipPath><clipPath id="e9c1dad180"><path d="M 121.417969 53.4375 L 139.875 56.230469 L 137.082031 74.6875 L 118.625 71.894531 Z M 121.417969 53.4375 " clip-rule="nonzero"/></clipPath><clipPath id="2cb0f313c9"><path d="M 121.417969 53.4375 L 139.875 56.230469 L 137.082031 74.6875 L 118.625 71.894531 Z M 121.417969 53.4375 " clip-rule="nonzero"/></clipPath><clipPath id="3cb5aa3045"><path d="M 48.714844 22.167969 L 115.917969 22.167969 L 115.917969 90 L 48.714844 90 Z M 48.714844 22.167969 " clip-rule="nonzero"/></clipPath><clipPath id="1acf625560"><path d="M 48.714844 22.167969 L 115.917969 22.167969 L 115.917969 90.117188 L 48.714844 90.117188 Z M 48.714844 22.167969 " clip-rule="nonzero"/></clipPath><clipPath id="c47f0c7ab5"><path d="M 283 54 L 298 54 L 298 72 L 283 72 Z M 283 54 " clip-rule="nonzero"/></clipPath><clipPath id="1c3de5f47e"><path d="M 284.21875 53.378906 L 300.367188 56.382812 L 297.363281 72.53125 L 281.214844 69.527344 Z M 284.21875 53.378906 " clip-rule="nonzero"/></clipPath><clipPath id="7b7832b5c6"><path d="M 284.21875 53.378906 L 300.367188 56.382812 L 297.363281 72.53125 L 281.214844 69.527344 Z M 284.21875 53.378906 " clip-rule="nonzero"/></clipPath><clipPath id="c0aff84c89"><path d="M 278.175781 43.8125 L 290.871094 43.8125 L 290.871094 53.519531 L 278.175781 53.519531 Z M 278.175781 43.8125 " clip-rule="nonzero"/></clipPath><clipPath id="bf9cf0362e"><path d="M 279 48 L 284 48 L 284 53.519531 L 279 53.519531 Z M 279 48 " clip-rule="nonzero"/></clipPath><clipPath id="d4a5ca876c"><path d="M 285 48 L 290 48 L 290 53.519531 L 285 53.519531 Z M 285 48 " clip-rule="nonzero"/></clipPath><clipPath id="9636f1ec0a"><path d="M 123.453125 44.144531 L 135.398438 44.144531 L 135.398438 53.105469 L 123.453125 53.105469 Z M 123.453125 44.144531 " clip-rule="nonzero"/></clipPath></defs><g clip-path="url(#dd55be54de)"><g clip-path="url(#e9c1dad180)"><g clip-path="url(#2cb0f313c9)"><path fill="#004907" d="M 128.816406 56.859375 C 127.835938 54.878906 125.4375 54.074219 123.457031 55.054688 C 121.480469 56.035156 120.671875 58.4375 121.652344 60.414062 C 121.828125 60.761719 122.25 60.90625 122.597656 60.730469 C 122.945312 60.558594 123.089844 60.136719 122.917969 59.789062 C 122.28125 58.507812 122.804688 56.953125 124.085938 56.316406 C 125.363281 55.679688 126.917969 56.203125 127.554688 57.484375 L 135.804688 74.105469 C 135.976562 74.457031 136.402344 74.597656 136.75 74.425781 C 137.097656 74.253906 137.242188 73.828125 137.066406 73.480469 Z M 128.816406 56.859375 " fill-opacity="1" fill-rule="evenodd"/></g></g></g><g clip-path="url(#3cb5aa3045)"><path fill="#ffffff" d="M 54.742188 22.296875 L 109.890625 22.296875 C 113.160156 22.296875 115.832031 24.996094 115.832031 28.296875 L 115.832031 83.980469 C 115.832031 87.28125 113.160156 89.980469 109.890625 89.980469 L 54.742188 89.980469 C 51.476562 89.980469 48.804688 87.28125 48.804688 83.980469 L 48.804688 28.296875 C 48.804688 24.996094 51.476562 22.296875 54.742188 22.296875 " fill-opacity="1" fill-rule="nonzero"/></g><g clip-path="url(#1acf625560)"><path stroke-linecap="butt" transform="matrix(0.0280239, 0, 0, -0.0282962, 48.716429, 90.067827)" fill="none" stroke-linejoin="miter" d="M 215.022075 2395.055584 L 2182.929084 2395.055584 C 2299.598454 2395.055584 2394.941165 2299.663992 2394.941165 2183.012914 L 2394.941165 215.129933 C 2394.941165 98.478854 2299.598454 3.087263 2182.929084 3.087263 L 215.022075 3.087263 C 98.492095 3.087263 3.149384 98.478854 3.149384 215.129933 L 3.149384 2183.012914 C 3.149384 2299.663992 98.492095 2395.055584 215.022075 2395.055584 Z M 215.022075 2395.055584 " stroke="#231f20" stroke-width="6.25" stroke-opacity="1" stroke-miterlimit="4"/></g><path fill="#15569c" d="M 54.742188 24.011719 L 109.890625 24.011719 C 112.226562 24.011719 114.136719 25.941406 114.136719 28.292969 L 114.136719 83.980469 C 114.136719 86.339844 112.226562 88.265625 109.890625 88.265625 L 54.742188 88.265625 C 52.410156 88.265625 50.5 86.339844 50.5 83.980469 L 50.5 28.292969 C 50.5 25.941406 52.410156 24.011719 54.742188 24.011719 " fill-opacity="1" fill-rule="evenodd"/><path fill="#ffffff" d="M 75.410156 38.867188 C 77.816406 38.644531 79.683594 36.550781 79.683594 34.105469 C 79.683594 31.472656 77.554688 29.324219 74.949219 29.324219 C 72.339844 29.324219 70.214844 31.472656 70.214844 34.105469 C 70.214844 34.910156 70.4375 35.730469 70.804688 36.421875 L 72.492188 60.390625 L 89.871094 60.398438 L 96.996094 77.257812 L 106.351562 73.554688 L 104.902344 70.070312 L 99.664062 71.976562 L 92.773438 55.902344 L 76.617188 56.011719 L 76.394531 52.976562 L 88.089844 52.980469 L 88.089844 48.492188 L 75.949219 48.484375 L 75.410156 38.867188 " fill-opacity="1" fill-rule="evenodd"/><path fill="#ffffff" d="M 92.886719 73.242188 C 89.957031 79.097656 83.816406 82.953125 77.269531 82.953125 C 67.652344 82.953125 59.808594 75.035156 59.808594 65.324219 C 59.808594 58.507812 63.902344 52.171875 70.007812 49.363281 L 70.402344 54.570312 C 66.792969 56.867188 64.566406 61.015625 64.566406 65.359375 C 64.566406 72.402344 70.257812 78.148438 77.234375 78.148438 C 83.613281 78.148438 89.054688 73.203125 89.796875 66.859375 L 92.886719 73.242188 " fill-opacity="1" fill-rule="evenodd"/><g clip-path="url(#c47f0c7ab5)"><g clip-path="url(#1c3de5f47e)"><g clip-path="url(#7b7832b5c6)"><path fill="#004907" d="M 290.492188 56.542969 C 289.703125 54.808594 287.660156 54.042969 285.929688 54.832031 C 284.195312 55.621094 283.429688 57.664062 284.21875 59.394531 C 284.355469 59.699219 284.71875 59.835938 285.023438 59.695312 C 285.328125 59.558594 285.464844 59.199219 285.324219 58.890625 C 284.8125 57.769531 285.308594 56.449219 286.433594 55.9375 C 287.554688 55.425781 288.875 55.921875 289.386719 57.042969 L 296.011719 71.605469 C 296.148438 71.910156 296.507812 72.042969 296.816406 71.90625 C 297.121094 71.765625 297.253906 71.40625 297.117188 71.101562 Z M 290.492188 56.542969 " fill-opacity="1" fill-rule="evenodd"/></g></g></g><g fill="#ffcc00" fill-opacity="1"><g transform="translate(118.333195, 61.237362)"><g><path d="M 0.21875 0 L 9.21875 -19.921875 L 12.375 -19.921875 L 21.375 0 L 17.546875 0 L 15.15625 -5.59375 L 16.734375 -4.4375 L 4.8125 -4.4375 L 6.390625 -5.59375 L 4.015625 0 Z M 10.734375 -15.9375 L 6.78125 -6.578125 L 6.046875 -7.46875 L 15.484375 -7.46875 L 14.78125 -6.578125 L 10.828125 -15.9375 Z M 10.734375 -15.9375 "/></g></g></g><g fill="#ffcc00" fill-opacity="1"><g transform="translate(142.324327, 61.237362)"><g><path d="M 6.875 0.28125 C 5.25 0.28125 4.03125 -0.15625 3.21875 -1.03125 C 2.40625 -1.90625 2 -3.179688 2 -4.859375 L 2 -19.921875 L 5.6875 -19.921875 L 5.6875 -5.09375 C 5.6875 -4.5625 5.757812 -4.113281 5.90625 -3.75 C 6.0625 -3.394531 6.285156 -3.125 6.578125 -2.9375 C 6.878906 -2.75 7.25 -2.65625 7.6875 -2.65625 C 7.9375 -2.65625 8.171875 -2.664062 8.390625 -2.6875 C 8.617188 -2.71875 8.847656 -2.765625 9.078125 -2.828125 L 9.125 -0.03125 C 8.75 0.0625 8.378906 0.132812 8.015625 0.1875 C 7.660156 0.25 7.28125 0.28125 6.875 0.28125 Z M 6.875 0.28125 "/></g></g></g><g fill="#ffcc00" fill-opacity="1"><g transform="translate(154.193133, 61.237362)"><g><path d="M 9.125 0.28125 C 7.46875 0.28125 6.050781 -0.0078125 4.875 -0.59375 C 3.695312 -1.175781 2.796875 -2.015625 2.171875 -3.109375 C 1.554688 -4.203125 1.25 -5.492188 1.25 -6.984375 C 1.25 -8.390625 1.546875 -9.632812 2.140625 -10.71875 C 2.734375 -11.8125 3.566406 -12.671875 4.640625 -13.296875 C 5.710938 -13.929688 6.960938 -14.25 8.390625 -14.25 C 9.734375 -14.25 10.894531 -13.957031 11.875 -13.375 C 12.851562 -12.800781 13.609375 -11.984375 14.140625 -10.921875 C 14.679688 -9.859375 14.953125 -8.59375 14.953125 -7.125 L 14.953125 -6.015625 L 4.1875 -6.015625 L 4.1875 -8.203125 L 12.359375 -8.203125 L 11.90625 -7.75 C 11.90625 -9.039062 11.609375 -10.019531 11.015625 -10.6875 C 10.421875 -11.363281 9.578125 -11.703125 8.484375 -11.703125 C 7.710938 -11.703125 7.039062 -11.523438 6.46875 -11.171875 C 5.90625 -10.828125 5.46875 -10.332031 5.15625 -9.6875 C 4.84375 -9.050781 4.6875 -8.269531 4.6875 -7.34375 L 4.6875 -7.0625 C 4.6875 -6.03125 4.851562 -5.175781 5.1875 -4.5 C 5.53125 -3.832031 6.039062 -3.335938 6.71875 -3.015625 C 7.40625 -2.703125 8.238281 -2.546875 9.21875 -2.546875 C 9.96875 -2.546875 10.734375 -2.648438 11.515625 -2.859375 C 12.296875 -3.066406 13.007812 -3.414062 13.65625 -3.90625 L 14.671875 -1.40625 C 13.972656 -0.863281 13.117188 -0.445312 12.109375 -0.15625 C 11.097656 0.132812 10.101562 0.28125 9.125 0.28125 Z M 9.125 0.28125 "/></g></g></g><g fill="#ffcc00" fill-opacity="1"><g transform="translate(172.758884, 61.237362)"><g><path d="M 0.140625 0 L 6.25 -8.078125 L 6.296875 -6.21875 L 0.421875 -13.96875 L 4.578125 -13.96875 L 8.25 -8.984375 L 7.46875 -8.984375 L 11.140625 -13.96875 L 15.296875 -13.96875 L 9.40625 -6.25 L 9.46875 -8.03125 L 15.578125 0 L 11.421875 0 L 7.46875 -5.3125 L 8.203125 -5.3125 L 4.265625 0 Z M 0.140625 0 "/></g></g></g><g fill="#ffcc00" fill-opacity="1"><g transform="translate(190.872522, 61.237362)"><g/></g></g><g fill="#ffcc00" fill-opacity="1"><g transform="translate(201.271948, 61.237362)"><g><path d="M 9.40625 0.28125 C 8.332031 0.28125 7.304688 0.195312 6.328125 0.03125 C 5.347656 -0.132812 4.445312 -0.378906 3.625 -0.703125 C 2.8125 -1.023438 2.09375 -1.410156 1.46875 -1.859375 L 2.625 -4.828125 C 3.25 -4.398438 3.914062 -4.039062 4.625 -3.75 C 5.34375 -3.457031 6.101562 -3.238281 6.90625 -3.09375 C 7.707031 -2.957031 8.539062 -2.890625 9.40625 -2.890625 C 10.84375 -2.890625 11.90625 -3.128906 12.59375 -3.609375 C 13.28125 -4.085938 13.625 -4.738281 13.625 -5.5625 C 13.625 -6.019531 13.519531 -6.394531 13.3125 -6.6875 C 13.101562 -6.976562 12.757812 -7.226562 12.28125 -7.4375 C 11.800781 -7.644531 11.175781 -7.820312 10.40625 -7.96875 L 7.203125 -8.59375 C 5.378906 -8.945312 4.03125 -9.585938 3.15625 -10.515625 C 2.289062 -11.453125 1.859375 -12.660156 1.859375 -14.140625 C 1.859375 -15.359375 2.195312 -16.425781 2.875 -17.34375 C 3.5625 -18.257812 4.5 -18.960938 5.6875 -19.453125 C 6.882812 -19.953125 8.269531 -20.203125 9.84375 -20.203125 C 10.757812 -20.203125 11.640625 -20.117188 12.484375 -19.953125 C 13.335938 -19.785156 14.117188 -19.53125 14.828125 -19.1875 C 15.546875 -18.851562 16.179688 -18.453125 16.734375 -17.984375 L 15.546875 -15.09375 C 14.753906 -15.769531 13.878906 -16.265625 12.921875 -16.578125 C 11.972656 -16.890625 10.9375 -17.046875 9.8125 -17.046875 C 8.945312 -17.046875 8.195312 -16.929688 7.5625 -16.703125 C 6.925781 -16.472656 6.429688 -16.144531 6.078125 -15.71875 C 5.734375 -15.300781 5.5625 -14.800781 5.5625 -14.21875 C 5.5625 -13.539062 5.78125 -13.007812 6.21875 -12.625 C 6.664062 -12.25 7.445312 -11.953125 8.5625 -11.734375 L 11.734375 -11.109375 C 13.617188 -10.734375 15.019531 -10.109375 15.9375 -9.234375 C 16.863281 -8.367188 17.328125 -7.222656 17.328125 -5.796875 C 17.328125 -4.585938 17 -3.523438 16.34375 -2.609375 C 15.695312 -1.703125 14.78125 -0.992188 13.59375 -0.484375 C 12.40625 0.0234375 11.007812 0.28125 9.40625 0.28125 Z M 9.40625 0.28125 "/></g></g></g><g fill="#ffcc00" fill-opacity="1"><g transform="translate(222.183053, 61.237362)"><g><path d="M 1.75 -16.84375 L 1.75 -20.46875 L 5.90625 -20.46875 L 5.90625 -16.84375 Z M 2 0 L 2 -13.96875 L 5.6875 -13.96875 L 5.6875 0 Z M 2 0 "/></g></g></g><g fill="#ffcc00" fill-opacity="1"><g transform="translate(232.299904, 61.237362)"><g><path d="M 2.0625 0 L 2.0625 -13.96875 L 5.515625 -13.96875 L 5.515625 -11.109375 L 5.375 -11.109375 C 5.613281 -11.742188 5.957031 -12.289062 6.40625 -12.75 C 6.863281 -13.21875 7.398438 -13.582031 8.015625 -13.84375 C 8.640625 -14.113281 9.320312 -14.25 10.0625 -14.25 C 11.195312 -14.25 12.132812 -13.972656 12.875 -13.421875 C 13.613281 -12.878906 14.128906 -12.097656 14.421875 -11.078125 L 14.1875 -11.078125 C 14.5625 -12.003906 15.171875 -12.765625 16.015625 -13.359375 C 16.867188 -13.953125 17.890625 -14.25 19.078125 -14.25 C 20.128906 -14.25 21.015625 -14.035156 21.734375 -13.609375 C 22.453125 -13.179688 22.992188 -12.535156 23.359375 -11.671875 C 23.722656 -10.804688 23.90625 -9.710938 23.90625 -8.390625 L 23.90625 0 L 20.265625 0 L 20.265625 -8.25 C 20.265625 -9.289062 20.085938 -10.0625 19.734375 -10.5625 C 19.390625 -11.0625 18.785156 -11.3125 17.921875 -11.3125 C 17.273438 -11.3125 16.710938 -11.160156 16.234375 -10.859375 C 15.753906 -10.554688 15.390625 -10.132812 15.140625 -9.59375 C 14.898438 -9.0625 14.78125 -8.425781 14.78125 -7.6875 L 14.78125 0 L 11.171875 0 L 11.171875 -8.25 C 11.171875 -9.289062 10.984375 -10.0625 10.609375 -10.5625 C 10.242188 -11.0625 9.644531 -11.3125 8.8125 -11.3125 C 8.175781 -11.3125 7.625 -11.15625 7.15625 -10.84375 C 6.695312 -10.53125 6.335938 -10.097656 6.078125 -9.546875 C 5.828125 -9.003906 5.703125 -8.382812 5.703125 -7.6875 L 5.703125 0 Z M 2.0625 0 "/></g></g></g><g fill="#ffcc00" fill-opacity="1"><g transform="translate(260.642646, 61.237362)"><g><path d="M 2 5.09375 L 2 -13.96875 L 5.453125 -13.96875 L 5.453125 -11.078125 L 5.34375 -11.078125 C 5.675781 -12.054688 6.28125 -12.828125 7.15625 -13.390625 C 8.039062 -13.960938 9.066406 -14.25 10.234375 -14.25 C 11.492188 -14.25 12.585938 -13.945312 13.515625 -13.34375 C 14.453125 -12.738281 15.179688 -11.898438 15.703125 -10.828125 C 16.222656 -9.753906 16.484375 -8.472656 16.484375 -6.984375 C 16.484375 -5.546875 16.226562 -4.273438 15.71875 -3.171875 C 15.207031 -2.078125 14.488281 -1.226562 13.5625 -0.625 C 12.644531 -0.0195312 11.546875 0.28125 10.265625 0.28125 C 9.109375 0.28125 8.109375 0.0078125 7.265625 -0.53125 C 6.429688 -1.082031 5.847656 -1.800781 5.515625 -2.6875 L 5.6875 -2.6875 L 5.6875 5.09375 Z M 9.21875 -2.515625 C 10.320312 -2.515625 11.191406 -2.898438 11.828125 -3.671875 C 12.472656 -4.441406 12.796875 -5.554688 12.796875 -7.015625 C 12.796875 -8.460938 12.472656 -9.554688 11.828125 -10.296875 C 11.191406 -11.046875 10.320312 -11.421875 9.21875 -11.421875 C 8.125 -11.421875 7.25 -11.046875 6.59375 -10.296875 C 5.945312 -9.554688 5.625 -8.460938 5.625 -7.015625 C 5.625 -5.554688 5.945312 -4.441406 6.59375 -3.671875 C 7.25 -2.898438 8.125 -2.515625 9.21875 -2.515625 Z M 9.21875 -2.515625 "/></g></g></g><g fill="#ffcc00" fill-opacity="1"><g transform="translate(280.790806, 61.237362)"><g><path d="M 6.875 0.28125 C 5.25 0.28125 4.03125 -0.15625 3.21875 -1.03125 C 2.40625 -1.90625 2 -3.179688 2 -4.859375 L 2 -19.921875 L 5.6875 -19.921875 L 5.6875 -5.09375 C 5.6875 -4.5625 5.757812 -4.113281 5.90625 -3.75 C 6.0625 -3.394531 6.285156 -3.125 6.578125 -2.9375 C 6.878906 -2.75 7.25 -2.65625 7.6875 -2.65625 C 7.9375 -2.65625 8.171875 -2.664062 8.390625 -2.6875 C 8.617188 -2.71875 8.847656 -2.765625 9.078125 -2.828125 L 9.125 -0.03125 C 8.75 0.0625 8.378906 0.132812 8.015625 0.1875 C 7.660156 0.25 7.28125 0.28125 6.875 0.28125 Z M 6.875 0.28125 "/></g></g></g><g fill="#ffcc00" fill-opacity="1"><g transform="translate(292.659617, 61.237362)"><g><path d="M 1.75 -16.84375 L 1.75 -20.46875 L 5.90625 -20.46875 L 5.90625 -16.84375 Z M 2 0 L 2 -13.96875 L 5.6875 -13.96875 L 5.6875 0 Z M 2 0 "/></g></g></g><g fill="#ffcc00" fill-opacity="1"><g transform="translate(302.77648, 61.237362)"><g><path d="M 8.53125 0.28125 C 7.0625 0.28125 5.78125 -0.0195312 4.6875 -0.625 C 3.59375 -1.226562 2.742188 -2.078125 2.140625 -3.171875 C 1.546875 -4.265625 1.25 -5.546875 1.25 -7.015625 C 1.25 -8.503906 1.546875 -9.789062 2.140625 -10.875 C 2.742188 -11.957031 3.59375 -12.789062 4.6875 -13.375 C 5.78125 -13.957031 7.070312 -14.25 8.5625 -14.25 C 9.507812 -14.25 10.425781 -14.101562 11.3125 -13.8125 C 12.207031 -13.519531 12.941406 -13.117188 13.515625 -12.609375 L 12.4375 -9.984375 C 11.925781 -10.410156 11.359375 -10.738281 10.734375 -10.96875 C 10.117188 -11.195312 9.519531 -11.3125 8.9375 -11.3125 C 7.664062 -11.3125 6.6875 -10.9375 6 -10.1875 C 5.3125 -9.445312 4.96875 -8.390625 4.96875 -7.015625 C 4.96875 -5.640625 5.3125 -4.566406 6 -3.796875 C 6.6875 -3.035156 7.65625 -2.65625 8.90625 -2.65625 C 9.488281 -2.65625 10.09375 -2.765625 10.71875 -2.984375 C 11.351562 -3.210938 11.914062 -3.535156 12.40625 -3.953125 L 13.515625 -1.328125 C 12.929688 -0.835938 12.195312 -0.445312 11.3125 -0.15625 C 10.425781 0.132812 9.5 0.28125 8.53125 0.28125 Z M 8.53125 0.28125 "/></g></g></g><g fill="#ffcc00" fill-opacity="1"><g transform="translate(319.166441, 61.237362)"><g><path d="M 1.75 -16.84375 L 1.75 -20.46875 L 5.90625 -20.46875 L 5.90625 -16.84375 Z M 2 0 L 2 -13.96875 L 5.6875 -13.96875 L 5.6875 0 Z M 2 0 "/></g></g></g><g fill="#ffcc00" fill-opacity="1"><g transform="translate(329.283304, 61.237362)"><g><path d="M 8.484375 0.28125 C 7.015625 0.28125 5.738281 -0.015625 4.65625 -0.609375 C 3.570312 -1.203125 2.734375 -2.046875 2.140625 -3.140625 C 1.546875 -4.234375 1.25 -5.515625 1.25 -6.984375 C 1.25 -8.472656 1.546875 -9.757812 2.140625 -10.84375 C 2.734375 -11.925781 3.570312 -12.765625 4.65625 -13.359375 C 5.738281 -13.953125 7.015625 -14.25 8.484375 -14.25 C 9.972656 -14.25 11.253906 -13.953125 12.328125 -13.359375 C 13.398438 -12.765625 14.234375 -11.921875 14.828125 -10.828125 C 15.421875 -9.734375 15.71875 -8.453125 15.71875 -6.984375 C 15.71875 -5.515625 15.421875 -4.234375 14.828125 -3.140625 C 14.234375 -2.046875 13.398438 -1.203125 12.328125 -0.609375 C 11.253906 -0.015625 9.972656 0.28125 8.484375 0.28125 Z M 8.484375 -2.59375 C 9.585938 -2.59375 10.457031 -2.972656 11.09375 -3.734375 C 11.738281 -4.503906 12.0625 -5.597656 12.0625 -7.015625 C 12.0625 -8.421875 11.738281 -9.492188 11.09375 -10.234375 C 10.457031 -10.984375 9.585938 -11.359375 8.484375 -11.359375 C 7.390625 -11.359375 6.515625 -10.984375 5.859375 -10.234375 C 5.210938 -9.492188 4.890625 -8.421875 4.890625 -7.015625 C 4.890625 -5.597656 5.210938 -4.503906 5.859375 -3.734375 C 6.515625 -2.972656 7.390625 -2.59375 8.484375 -2.59375 Z M 8.484375 -2.59375 "/></g></g></g><g clip-path="url(#c0aff84c89)"><path fill="#646464" d="M 287.449219 48.527344 C 288.128906 48.527344 288.746094 48.804688 289.191406 49.253906 C 289.597656 49.667969 289.863281 50.226562 289.90625 50.847656 C 290.019531 50.851562 290.125 50.851562 290.214844 50.839844 C 290.339844 50.824219 290.414062 50.769531 290.394531 50.574219 L 290.105469 48.097656 L 289.746094 44.96875 C 289.707031 44.640625 289.527344 44.460938 289.289062 44.367188 C 289.0625 44.277344 288.785156 44.25 288.515625 44.25 C 288.234375 44.246094 288.242188 43.824219 288.488281 43.824219 C 288.808594 43.824219 289.152344 43.855469 289.441406 43.972656 C 289.816406 44.121094 290.101562 44.40625 290.160156 44.917969 L 290.523438 48.050781 L 290.808594 50.527344 C 290.871094 51.058594 290.644531 51.21875 290.265625 51.261719 C 290.15625 51.273438 290.03125 51.273438 289.898438 51.273438 C 289.839844 51.859375 289.578125 52.386719 289.191406 52.78125 C 288.742188 53.234375 288.128906 53.511719 287.449219 53.511719 C 286.769531 53.511719 286.152344 53.234375 285.707031 52.78125 C 285.261719 52.332031 284.988281 51.707031 284.988281 51.019531 C 284.988281 50.832031 285.007812 50.648438 285.046875 50.46875 C 284.886719 50.433594 284.710938 50.414062 284.523438 50.414062 C 284.335938 50.414062 284.160156 50.433594 284 50.46875 C 284.039062 50.648438 284.0625 50.832031 284.0625 51.019531 C 284.0625 51.707031 283.785156 52.332031 283.339844 52.78125 C 282.894531 53.234375 282.28125 53.511719 281.601562 53.511719 C 280.921875 53.511719 280.304688 53.234375 279.859375 52.78125 C 279.46875 52.386719 279.207031 51.859375 279.148438 51.273438 C 279.015625 51.273438 278.890625 51.277344 278.785156 51.261719 C 278.402344 51.21875 278.175781 51.058594 278.238281 50.527344 L 278.523438 48.050781 L 278.886719 44.917969 C 278.945312 44.40625 279.230469 44.121094 279.605469 43.972656 C 279.886719 43.859375 280.214844 43.828125 280.523438 43.824219 C 280.824219 43.820312 280.832031 44.246094 280.503906 44.25 C 280.242188 44.253906 279.976562 44.277344 279.761719 44.367188 C 279.523438 44.460938 279.34375 44.640625 279.304688 44.964844 L 278.941406 48.097656 L 278.65625 50.574219 C 278.632812 50.765625 278.707031 50.824219 278.832031 50.839844 C 278.921875 50.851562 279.027344 50.851562 279.144531 50.847656 C 279.183594 50.226562 279.453125 49.667969 279.859375 49.253906 C 280.304688 48.804688 280.921875 48.523438 281.601562 48.523438 C 282.28125 48.523438 282.894531 48.804688 283.339844 49.253906 C 283.566406 49.484375 283.75 49.757812 283.875 50.0625 C 284.074219 50.015625 284.292969 49.988281 284.523438 49.988281 C 284.753906 49.988281 284.976562 50.015625 285.175781 50.0625 C 285.300781 49.757812 285.480469 49.484375 285.710938 49.253906 C 286.15625 48.804688 286.769531 48.523438 287.449219 48.523438 Z M 283.042969 49.554688 C 282.671875 49.183594 282.164062 48.949219 281.601562 48.949219 C 281.035156 48.949219 280.527344 49.183594 280.15625 49.554688 C 279.789062 49.929688 279.558594 50.449219 279.558594 51.019531 C 279.558594 51.589844 279.785156 52.105469 280.15625 52.480469 C 280.527344 52.855469 281.035156 53.085938 281.601562 53.085938 C 282.164062 53.085938 282.675781 52.855469 283.042969 52.480469 C 283.414062 52.105469 283.640625 51.589844 283.640625 51.019531 C 283.640625 50.449219 283.414062 49.929688 283.042969 49.554688 Z M 288.890625 49.554688 C 288.523438 49.183594 288.011719 48.949219 287.449219 48.949219 C 286.886719 48.949219 286.375 49.183594 286.003906 49.554688 C 285.636719 49.929688 285.40625 50.449219 285.40625 51.019531 C 285.40625 51.589844 285.636719 52.105469 286.003906 52.480469 C 286.375 52.855469 286.886719 53.085938 287.449219 53.085938 C 288.011719 53.085938 288.523438 52.855469 288.890625 52.480469 C 289.261719 52.105469 289.492188 51.589844 289.492188 51.019531 C 289.492188 50.449219 289.261719 49.929688 288.890625 49.554688 Z M 288.890625 49.554688 " fill-opacity="1" fill-rule="nonzero"/></g><g clip-path="url(#bf9cf0362e)"><path fill="#292929" d="M 283.640625 51.019531 C 283.640625 50.449219 283.414062 49.929688 283.042969 49.554688 C 282.671875 49.183594 282.164062 48.949219 281.601562 48.949219 C 281.035156 48.949219 280.527344 49.183594 280.15625 49.554688 C 279.789062 49.929688 279.558594 50.449219 279.558594 51.019531 C 279.558594 51.589844 279.785156 52.105469 280.15625 52.480469 C 280.527344 52.855469 281.035156 53.085938 281.601562 53.085938 C 282.164062 53.085938 282.675781 52.855469 283.042969 52.480469 C 283.414062 52.105469 283.640625 51.589844 283.640625 51.019531 Z M 283.640625 51.019531 " fill-opacity="1" fill-rule="evenodd"/></g><g clip-path="url(#d4a5ca876c)"><path fill="#292929" d="M 286.003906 49.558594 C 285.636719 49.929688 285.40625 50.449219 285.40625 51.019531 C 285.40625 51.589844 285.636719 52.105469 286.003906 52.480469 C 286.375 52.855469 286.886719 53.085938 287.449219 53.085938 C 288.011719 53.085938 288.523438 52.855469 288.890625 52.480469 C 289.261719 52.105469 289.492188 51.589844 289.492188 51.019531 C 289.492188 50.449219 289.261719 49.929688 288.890625 49.558594 C 288.523438 49.183594 288.011719 48.953125 287.449219 48.953125 C 286.886719 48.953125 286.375 49.183594 286.003906 49.558594 Z M 286.003906 49.558594 " fill-opacity="1" fill-rule="evenodd"/></g><g clip-path="url(#9636f1ec0a)"><path fill="#646464" d="M 132.179688 48.496094 C 132.820312 48.496094 133.398438 48.753906 133.816406 49.167969 C 134.203125 49.550781 134.453125 50.066406 134.492188 50.640625 C 134.601562 50.640625 134.699219 50.640625 134.785156 50.632812 C 134.902344 50.617188 134.972656 50.566406 134.949219 50.386719 L 134.679688 48.101562 L 134.339844 45.207031 C 134.304688 44.90625 134.132812 44.742188 133.910156 44.652344 C 133.699219 44.570312 133.4375 44.546875 133.183594 44.546875 C 132.917969 44.542969 132.925781 44.152344 133.15625 44.152344 C 133.460938 44.152344 133.78125 44.179688 134.054688 44.289062 C 134.40625 44.429688 134.675781 44.691406 134.730469 45.164062 L 135.074219 48.058594 L 135.34375 50.34375 C 135.398438 50.832031 135.1875 50.980469 134.828125 51.023438 C 134.726562 51.035156 134.609375 51.035156 134.484375 51.03125 C 134.429688 51.574219 134.183594 52.0625 133.816406 52.425781 C 133.398438 52.84375 132.820312 53.101562 132.179688 53.101562 C 131.539062 53.101562 130.960938 52.84375 130.539062 52.425781 C 130.121094 52.007812 129.863281 51.433594 129.863281 50.796875 C 129.863281 50.625 129.882812 50.453125 129.917969 50.292969 C 129.769531 50.257812 129.601562 50.238281 129.425781 50.238281 C 129.25 50.238281 129.085938 50.257812 128.933594 50.292969 C 128.972656 50.453125 128.992188 50.625 128.992188 50.796875 C 128.992188 51.433594 128.730469 52.007812 128.3125 52.425781 C 127.894531 52.84375 127.3125 53.101562 126.675781 53.101562 C 126.035156 53.101562 125.453125 52.84375 125.035156 52.425781 C 124.667969 52.0625 124.425781 51.574219 124.367188 51.03125 C 124.242188 51.035156 124.125 51.035156 124.023438 51.023438 C 123.664062 50.980469 123.453125 50.832031 123.511719 50.34375 L 123.78125 48.058594 L 124.121094 45.164062 C 124.175781 44.6875 124.445312 44.429688 124.796875 44.289062 C 125.0625 44.183594 125.371094 44.15625 125.660156 44.152344 C 125.945312 44.152344 125.949219 44.542969 125.640625 44.546875 C 125.398438 44.546875 125.148438 44.574219 124.945312 44.652344 C 124.71875 44.742188 124.550781 44.90625 124.515625 45.207031 L 124.171875 48.101562 L 123.902344 50.386719 C 123.882812 50.566406 123.953125 50.617188 124.070312 50.632812 C 124.15625 50.640625 124.253906 50.640625 124.363281 50.640625 C 124.402344 50.066406 124.652344 49.550781 125.035156 49.167969 C 125.457031 48.753906 126.035156 48.496094 126.675781 48.496094 C 127.316406 48.496094 127.894531 48.753906 128.3125 49.167969 C 128.527344 49.378906 128.699219 49.632812 128.816406 49.914062 C 129.003906 49.871094 129.210938 49.84375 129.425781 49.84375 C 129.644531 49.84375 129.851562 49.871094 130.039062 49.914062 C 130.15625 49.632812 130.328125 49.378906 130.542969 49.167969 C 130.960938 48.753906 131.539062 48.496094 132.179688 48.496094 Z M 128.03125 49.449219 C 127.683594 49.101562 127.203125 48.886719 126.675781 48.886719 C 126.144531 48.886719 125.664062 49.101562 125.316406 49.449219 C 124.96875 49.792969 124.753906 50.269531 124.753906 50.796875 C 124.753906 51.324219 124.96875 51.800781 125.316406 52.148438 C 125.664062 52.492188 126.144531 52.707031 126.675781 52.707031 C 127.203125 52.707031 127.683594 52.492188 128.03125 52.148438 C 128.378906 51.800781 128.59375 51.324219 128.59375 50.796875 C 128.59375 50.269531 128.378906 49.792969 128.03125 49.449219 Z M 133.539062 49.449219 C 133.191406 49.101562 132.710938 48.886719 132.179688 48.886719 C 131.648438 48.886719 131.167969 49.101562 130.820312 49.449219 C 130.472656 49.792969 130.257812 50.269531 130.257812 50.796875 C 130.257812 51.324219 130.472656 51.800781 130.820312 52.148438 C 131.167969 52.492188 131.648438 52.707031 132.179688 52.707031 C 132.710938 52.707031 133.191406 52.492188 133.539062 52.148438 C 133.886719 51.800781 134.101562 51.324219 134.101562 50.796875 C 134.101562 50.269531 133.886719 49.792969 133.539062 49.449219 Z M 133.539062 49.449219 " fill-opacity="1" fill-rule="nonzero"/></g><path fill="#292929" d="M 128.59375 50.796875 C 128.59375 50.269531 128.378906 49.792969 128.03125 49.449219 C 127.683594 49.101562 127.203125 48.886719 126.675781 48.886719 C 126.144531 48.886719 125.664062 49.101562 125.316406 49.449219 C 124.96875 49.792969 124.753906 50.269531 124.753906 50.796875 C 124.753906 51.324219 124.96875 51.800781 125.316406 52.148438 C 125.664062 52.492188 126.144531 52.707031 126.675781 52.707031 C 127.203125 52.707031 127.683594 52.492188 128.03125 52.148438 C 128.378906 51.800781 128.59375 51.324219 128.59375 50.796875 Z M 128.59375 50.796875 " fill-opacity="1" fill-rule="evenodd"/><path fill="#292929" d="M 130.820312 49.449219 C 130.472656 49.792969 130.257812 50.269531 130.257812 50.796875 C 130.257812 51.324219 130.472656 51.800781 130.820312 52.148438 C 131.167969 52.492188 131.648438 52.707031 132.179688 52.707031 C 132.710938 52.707031 133.191406 52.492188 133.539062 52.148438 C 133.886719 51.800781 134.101562 51.324219 134.101562 50.796875 C 134.101562 50.269531 133.886719 49.792969 133.539062 49.449219 C 133.191406 49.101562 132.710938 48.886719 132.179688 48.886719 C 131.648438 48.886719 131.167969 49.101562 130.820312 49.449219 Z M 130.820312 49.449219 " fill-opacity="1" fill-rule="evenodd"/></svg>